<svg height="512" viewBox="0 0 512 512" width="512" xmlns="http://www.w3.org/2000/svg"><g id="flat"><path d="m296 464h-40v-180a36 36 0 0 1 36-36h4z" fill="#fdc9a6"/><path d="m296 344h-40v-60a36 36 0 0 1 36-36h4z" fill="#4799cf"/><path d="m256 344h40v16h-40z" fill="#eeb58e"/><path d="m424 464h40v-180a36 36 0 0 0 -36-36h-4z" fill="#fdc9a6"/><path d="m424 344h40v-60a36 36 0 0 0 -36-36h-4z" fill="#4799cf"/><path d="m424 344h40v16h-40z" fill="#eeb58e"/><path d="m424 464h-128v-112l-3.1-6.2a49.7 49.7 0 0 1 3.1-49.8v-48h128v48a49.7 49.7 0 0 1 3.1 49.8l-3.1 6.2z" fill="#c7463b"/><path d="m328 248h64v32h-64z" fill="#4799cf"/><path d="m296 248h32v32h-32z" fill="#834b10"/><path d="m392 248h32v32h-32z" fill="#834b10"/><path d="m360 240a99.851 99.851 0 0 0 58.039-18.6l29.961-21.4a146.027 146.027 0 0 1 -32-91.225v-28.775h-112v28.775a146.027 146.027 0 0 1 -32 91.225l29.961 21.4a99.851 99.851 0 0 0 58.039 18.6z" fill="#ea9d2d"/><path d="m392 248h-64a75.594 75.594 0 0 0 5.97-16.48 74.451 74.451 0 0 0 1.9-12.97c.09-1.48.13-2.96.13-4.44v-6.11h48v6.11c0 1.48.04 2.96.13 4.44a75.768 75.768 0 0 0 7.87 29.45z" fill="#fdc9a6"/><path d="m384.13 218.55a56.143 56.143 0 0 1 -48.26 0c.09-1.48.13-2.96.13-4.44v-6.11h48v6.11c0 1.48.04 2.96.13 4.44z" fill="#f6bb92"/><path d="m328 376h64v32h-64z" fill="#dc4d41"/><path d="m328 344h64v32h-64z" fill="#f55648"/><rect fill="#b9b9b9" height="144" rx="12" width="192" x="24" y="200"/><path d="m104 312h32v72h-32z" fill="#a8a8a8"/><path d="m24 376h200v80h-200z" fill="#b9b9b9"/><path d="m216 376h24l56 56v24h-80z" fill="#cdcdcd"/><g fill="#a8a8a8"><path d="m72 232h96v80h-96z"/><path d="m24 416h72v16h-72z"/><path d="m112 416h104v16h-104z"/></g><path d="m24 456h455.604v32h-455.604z" fill="#744630"/><path d="m24 472h455.604v16h-455.604z" fill="#5b3726"/><path d="m360 216a56 56 0 0 1 -56-56v-72h112v72a56 56 0 0 1 -56 56z" fill="#fdc9a6"/><circle cx="336" cy="144" fill="#8f563b" r="8"/><circle cx="384" cy="144" fill="#8f563b" r="8"/><path d="m360 190.613a30.532 30.532 0 0 1 -21.656-8.956 8 8 0 1 1 11.312-11.314 14.646 14.646 0 0 0 20.688 0 8 8 0 1 1 11.312 11.314 30.532 30.532 0 0 1 -21.656 8.956z" fill="#8f563b"/><path d="m424 88h-128a64 64 0 0 1 64-64 64 64 0 0 1 64 64z" fill="#4799cf"/><path d="m292 112h12a0 0 0 0 1 0 0v40a0 0 0 0 1 0 0h-12a20 20 0 0 1 -20-20 20 20 0 0 1 20-20z" fill="#f6bb92"/><path d="m416 112h12a20 20 0 0 1 20 20 20 20 0 0 1 -20 20h-12a0 0 0 0 1 0 0v-40a0 0 0 0 1 0 0z" fill="#f6bb92"/><path d="m304 88a172.578 172.578 0 0 0 110.482 40h1.518v-40z" fill="#ea9d2d"/><path d="m456 96h-160a8 8 0 0 1 0-16h160a8 8 0 0 1 0 16z" fill="#428dc5"/><path d="m296 272h32v8h-32z" fill="#70400e"/><path d="m392 272h32v8h-32z" fill="#70400e"/><path d="m104 312h32v24h-32z" fill="#878787"/></g></svg>