<svg id="Capa_1" enable-background="new 0 0 512 512" height="512" viewBox="0 0 512 512" width="512" xmlns="http://www.w3.org/2000/svg"><g><g><path d="m287.455 0h-82.415c-56.66 0-103.018 46.358-103.018 103.018v25.755c0 12.688 3.334 24.629 9.149 35.015 5.429-7.59 14.309-12.551 24.332-12.551h13.995v-2.891c0-19.33 15.727-35.057 35.057-35.057h123.387c19.33 0 35.057 15.727 35.057 35.057v2.891h13.994c10.023 0 18.903 4.961 24.332 12.551 5.815-10.386 9.149-22.327 9.149-35.015v-25.755c-.001-56.66-46.359-103.018-103.019-103.018z" fill="#05e39c"/><path d="m122.743 152.996v-4.65c0-18.69 8.35-35.456 21.501-46.799.796-55.988 46.831-101.547 103-101.547h-42.203c-56.66 0-103.018 46.358-103.018 103.018v25.755c0 12.29 3.121 23.884 8.602 34.038 3.117-4.225 7.286-7.621 12.118-9.815z" fill="#0ed290"/><g fill="#0ed290"><path d="m184.554 87.535h2.232v-25.21c0-4.142-3.357-7.5-7.5-7.5s-7.5 3.358-7.5 7.5v26.57c4.12-.884 8.389-1.36 12.768-1.36z"/><path d="m227.993 87.535v-25.21c0-4.142-3.357-7.5-7.5-7.5s-7.5 3.358-7.5 7.5v25.21z"/><path d="m279.502 87.535v-25.21c0-4.142-3.357-7.5-7.5-7.5s-7.5 3.358-7.5 7.5v25.21z"/><path d="m307.942 87.535c4.38 0 8.649.476 12.769 1.36v-26.57c0-4.142-3.357-7.5-7.5-7.5s-7.5 3.358-7.5 7.5v25.21z"/></g><path d="m135.503 151.237h13.995v-2.891c0-19.33 15.727-35.057 35.057-35.057h123.387c19.33 0 35.057 15.727 35.057 35.057v2.891h13.994c4.563 0 8.888 1.031 12.761 2.866v-5.757c0-34.083-27.729-61.811-61.811-61.811h-123.389c-34.082 0-61.811 27.728-61.811 61.811v5.757c3.873-1.835 8.198-2.866 12.76-2.866z" fill="#00c285"/><path d="m135.504 150.237h12.995v-1.891c0-11.016 4.946-20.872 12.732-27.486 10.136-20.324 31.129-34.325 55.341-34.325h-32.018c-34.083 0-61.811 27.728-61.811 61.811v4.65c3.891-1.767 8.209-2.759 12.761-2.759z" fill="#07b27b"/><path d="m392.339 308.476c-4.521-1.297-9.29-2.006-14.228-2.006h-78.293l-1.733 1-30.403 52.625c-4.475 7.747-12.487 12.372-21.434 12.372-8.946 0-16.959-4.625-21.435-12.372l-30.403-52.625-1.732-1h-78.294c-9.581 0-18.545 2.624-26.228 7.181v63.124h5.134c6.813 0 12.356 5.543 12.356 12.356 0 3.917-1.811 7.519-4.969 9.885-.766.576-1.223 1.489-1.223 2.445 0 .957.457 1.87 1.222 2.444 3.159 2.366 4.97 5.968 4.97 9.884s-1.811 7.518-4.969 9.883c-.766.574-1.223 1.488-1.223 2.445 0 .955.457 1.868 1.222 2.443 3.158 2.368 4.97 5.971 4.97 9.886s-1.812 7.518-4.969 9.885c-.766.576-1.223 1.489-1.223 2.444 0 .958.457 1.872 1.223 2.445 3.158 2.365 4.969 5.967 4.969 9.883 0 6.813-5.543 12.357-12.356 12.357h-5.134v34.54l1 2h292.365l1-1.782v-185.196c0-2.289 1.862-4.151 4.151-4.151h6.666v-10.109z" fill="#05e39c"/><path d="m166.889 306.469h-52.505c-9.168 0-17.77 2.406-25.228 6.605v62.699h4.134c7.364 0 13.356 5.992 13.356 13.356 0 4.234-1.957 8.129-5.369 10.685-.517.388-.823.997-.823 1.644 0 .648.306 1.257.823 1.644 3.413 2.556 5.369 6.449 5.369 10.684s-1.957 8.127-5.369 10.684c-.517.387-.823.998-.823 1.644s.306 1.255.823 1.644c3.413 2.557 5.369 6.451 5.369 10.685s-1.957 8.128-5.369 10.685c-.517.388-.823.997-.823 1.644 0 .648.306 1.258.823 1.645 3.413 2.556 5.369 6.449 5.369 10.683 0 7.365-5.992 13.357-13.356 13.357h-4.134v35.543h36.525c-5.689 0-10.302-4.612-10.302-10.302v-143.72c.001-28.447 23.063-51.509 51.51-51.509z" fill="#0ed290"/><path d="m246.248 372.466c-2.602 0-5.12-.403-7.5-1.148v140.682h15v-140.682c-2.38.746-4.898 1.148-7.5 1.148z" fill="#00c285"/><path d="m274.063 301.47v-21.258c-5.604 1.14-11.331 1.742-17.099 1.742h-21.433c-5.768 0-11.495-.602-17.098-1.742v21.258c0 2.761-2.239 5-5 5h-20.755l31.269 54.125c9.915 17.161 34.686 17.161 44.601 0l31.269-54.125h-20.755c-2.76 0-4.999-2.239-4.999-5z" fill="#ffbd86"/><path d="m243.905 360.595-31.27-54.125h-19.957l31.269 54.125c6.9 11.943 20.985 15.543 32.26 10.863-4.913-2.046-9.294-5.656-12.302-10.863z" fill="#f6a96c"/><g><path d="m149.498 195.919v-45.683h-13.995c-17.069 0-30.905 13.837-30.905 30.905v11.502c0 17.069 13.837 30.905 30.905 30.905h18.572c-2.951-8.678-4.577-17.964-4.577-27.629z" fill="#f6a96c"/><path d="m356.992 150.237h-13.994v45.683c0 9.665-1.625 18.951-4.578 27.63h18.572c17.069 0 30.906-13.837 30.906-30.905v-11.502c0-17.069-13.837-30.906-30.906-30.906z" fill="#ffbd86"/></g><path d="m307.942 112.29h-123.388c-19.913 0-36.056 16.143-36.056 36.056v47.573c0 6.626.744 13.077 2.147 19.278l2.03 1h37.188c4.108 0 7.953-1.499 10.825-4.22 11.208-10.618 27.813-16.708 45.561-16.708s34.353 6.09 45.56 16.708c2.873 2.721 6.718 4.22 10.826 4.22h37.073l2.144-1c1.402-6.201 2.146-12.653 2.146-19.278v-47.574c0-19.912-16.143-36.055-36.056-36.055z" fill="#fed2a4"/><g><path d="m182.684 215.198c-1.404-6.203-2.168-12.65-2.168-19.278v-47.573c0-19.913 16.143-36.056 36.056-36.056h-32.018c-19.914 0-36.056 16.143-36.056 36.056v47.573c0 6.626.744 13.077 2.147 19.278z" fill="#ffbd86"/></g><path d="m235.237 146c4.143 0 7.5-3.358 7.5-7.5s-3.357-7.5-7.5-7.5c-10.44 0-18.948-8.344-19.256-18.71h-15.014c.308 18.64 15.557 33.71 34.27 33.71z" fill="#554e56"/><g><g><path d="m199.89 181.431c-4.143 0-7.5-3.358-7.5-7.5v-16.671c0-4.142 3.357-7.5 7.5-7.5s7.5 3.358 7.5 7.5v16.671c0 4.142-3.357 7.5-7.5 7.5z" fill="#bb5d4c"/></g><g><path d="m292.606 181.431c-4.143 0-7.5-3.358-7.5-7.5v-16.671c0-4.142 3.357-7.5 7.5-7.5s7.5 3.358 7.5 7.5v16.671c0 4.142-3.358 7.5-7.5 7.5z" fill="#bb5d4c"/></g></g><path d="m246.248 195.27c2.529 0 5.032.126 7.5.369v-26.859c0-4.142-3.357-7.5-7.5-7.5s-7.5 3.358-7.5 7.5v26.858c2.468-.242 4.971-.368 7.5-.368z" fill="#bb5d4c"/><g><path d="m341.829 215.198h-39.195c-3.754 0-7.413-1.364-10.138-3.946-10.935-10.361-27.585-16.982-46.248-16.982s-35.313 6.622-46.248 16.982c-2.725 2.582-6.384 3.946-10.138 3.946h-39.195c8.775 38.786 43.426 67.756 84.865 67.756h21.432c41.439 0 76.089-28.97 84.865-67.756z" fill="#8ac9fe"/></g><g><path d="m235.532 282.954h21.432c1.779 0 3.541-.07 5.293-.175-39.071-2.346-71.173-30.464-79.573-67.581h-32.017c8.776 38.786 43.426 67.756 84.865 67.756z" fill="#60b7ff"/></g><g fill="#fd8087"><path d="m60.658 475.459c-1.865 0-3.677-.236-5.406-.677v32.067c0 2.845 2.306 5.151 5.151 5.151h28.754v-36.541z"/><path d="m84.006 236.942h-23.603c-2.845 0-5.151 2.306-5.151 5.151v93.231l1.441 1h30.729l1.735-1v-93.231c0-2.845-2.306-5.151-5.151-5.151z"/></g><g fill="#fe646f"><path d="m73.234 506.849v-30.39h-12.576c-1.863 0-3.672-.229-5.406-.65v31.041c0 2.845 2.306 5.151 5.151 5.151h17.982c-2.845-.001-5.151-2.307-5.151-5.152z"/><path d="m73.234 335.324v-93.231c0-2.845 2.306-5.151 5.151-5.151h-17.982c-2.845 0-5.151 2.306-5.151 5.151v93.231z"/></g><path d="m60.658 376.773 28.498.001v-41.45h-33.904v42.126c1.73-.441 3.541-.677 5.406-.677z" fill="#554e56"/><path d="m60.658 375.773 12.576.001v-40.45h-17.982v41.1c1.735-.422 3.544-.651 5.406-.651z" fill="#433f43"/><g><path d="m60.658 375.773c-12.626 0-22.896 10.272-22.896 22.897v54.892c0 12.626 10.271 22.896 22.896 22.896h32.632c7.364 0 13.356-5.992 13.356-13.357 0-4.234-1.957-8.127-5.369-10.683-.517-.388-.823-.997-.823-1.645 0-.646.306-1.255.823-1.644 3.413-2.557 5.369-6.452 5.369-10.685 0-4.234-1.957-8.128-5.369-10.685-.517-.388-.823-.997-.823-1.644 0-.646.306-1.258.823-1.644 3.413-2.556 5.369-6.449 5.369-10.684s-1.957-8.128-5.369-10.684c-.517-.388-.823-.997-.823-1.644s.306-1.256.823-1.644c3.413-2.556 5.369-6.451 5.369-10.685 0-7.363-5.992-13.356-13.356-13.356z" fill="#ffbd86"/></g><g><path d="m65.932 453.562v-54.892c0-12.61 10.245-22.87 22.849-22.896l-28.123-.001c-12.626 0-22.897 10.272-22.897 22.897v54.892c0 12.626 10.271 22.896 22.897 22.896h28.17c-12.625.001-22.896-10.27-22.896-22.896z" fill="#f6a96c"/></g><g><path d="m456.589 308.387-24.541-24.542h-14.955v6.259l28.889 28.889c1.465 1.465 3.384 2.197 5.304 2.197 1.919 0 3.839-.732 5.304-2.197 2.928-2.929 2.928-7.678-.001-10.606z" fill="#8ac9fe"/><g><path d="m392.339 283.845h25.755v37.026h-25.755z" fill="#b5adb6"/><path d="m428.91 347.656v-22.634c0-2.845-2.306-5.151-5.151-5.151h-37.087c-2.845 0-5.151 2.306-5.151 5.151v21.634l1.174 1z" fill="#26a6fe"/><path d="m402.801 325.022c0-2.845 2.306-5.151 5.151-5.151h-21.279c-2.845 0-5.151 2.306-5.151 5.151v21.634h21.279z" fill="#0593fc"/></g><g><path d="m469.087 512h-87.565v-165.344h61.811c17.069 0 30.905 13.837 30.905 30.905v129.288c0 2.845-2.306 5.151-5.151 5.151z" fill="#8ac9fe"/></g><g><path d="m381.522 346.656h31.581v165.344h-31.581z" fill="#60b7ff"/></g><g><path d="m381.522 512h87.565c2.845 0 5.151-2.306 5.151-5.151v-35.541h-92.716z" fill="#26a6fe"/></g><g><path d="m381.522 471.308h31.581v40.692h-31.581z" fill="#0593fc"/></g><g><path d="m455.695 284.845h-66.962c-6.258 0-11.332-5.073-11.332-11.332v-6.181c0-6.258 5.074-11.332 11.332-11.332h66.962c1.707 0 3.091 1.384 3.091 3.091v22.664c0 1.706-1.384 3.09-3.091 3.09z" fill="#26a6fe"/></g><g><path d="m408.982 273.513v-6.181c0-6.258 5.073-11.332 11.332-11.332h-31.581c-6.259 0-11.332 5.074-11.332 11.332v6.181c0 6.258 5.073 11.332 11.332 11.332h31.581c-6.259 0-11.332-5.073-11.332-11.332z" fill="#0593fc"/></g></g></g><g><g><g><path d="m183.372 431.419h-38.073c-4.143 0-7.5-3.358-7.5-7.5s3.357-7.5 7.5-7.5h38.073c4.143 0 7.5 3.358 7.5 7.5s-3.357 7.5-7.5 7.5z" fill="#fff"/></g></g></g><g><g><g><path d="m183.372 458.204h-38.073c-4.143 0-7.5-3.358-7.5-7.5s3.357-7.5 7.5-7.5h38.073c4.143 0 7.5 3.358 7.5 7.5s-3.357 7.5-7.5 7.5z" fill="#fff"/></g></g></g></g></svg>