<?xml version="1.0" standalone="no"?>
<!DOCTYPE svg PUBLIC "-//W3C//DTD SVG 20010904//EN"
 "http://www.w3.org/TR/2001/REC-SVG-20010904/DTD/svg10.dtd">
<svg version="1.0" xmlns="http://www.w3.org/2000/svg"
 width="960.000000pt" height="916.000000pt" viewBox="0 0 960.000000 916.000000"
 preserveAspectRatio="xMidYMid meet">

<g transform="translate(0.000000,916.000000) scale(0.100000,-0.100000)"
fill="#000000" stroke="none">
<path d="M2908 8325 c-4 -4 1 -22 10 -41 32 -68 -14 -117 -74 -77 -23 15 -49
18 -139 18 -123 0 -158 -9 -312 -81 -128 -59 -126 -53 -84 -254 18 -88 123
-225 202 -266 30 -15 34 -25 44 -114 9 -80 81 -355 101 -385 23 -35 27 -26 13
31 -20 88 -14 220 15 309 l25 80 103 1 c91 0 112 4 183 32 45 18 121 57 170
88 l89 57 74 -11 c40 -7 98 -23 127 -38 72 -33 154 -109 190 -176 l30 -53 -1
-172 c-1 -95 0 -173 3 -173 2 0 15 24 28 54 76 172 118 544 81 716 -16 70 -71
200 -85 200 -5 0 -19 -16 -31 -35 -42 -68 -83 -72 -109 -12 -26 57 -105 153
-166 199 -28 21 -86 53 -130 70 -73 29 -91 32 -215 36 -74 2 -138 1 -142 -3z"/>
<path d="M2923 7441 c-61 -20 -115 -39 -119 -43 -12 -12 50 -9 164 8 140 20
171 37 117 62 -34 16 -32 16 -162 -27z"/>
<path d="M3283 7468 c-51 -24 -21 -41 113 -62 112 -18 183 -21 169 -7 -10 9
-237 82 -252 80 -4 0 -18 -5 -30 -11z"/>
<path d="M2953 7323 c-18 -68 -3 -153 26 -153 21 0 41 44 41 90 0 76 -51 124
-67 63z"/>
<path d="M3341 7319 c-22 -62 -5 -149 29 -149 20 0 40 45 40 90 0 45 -20 90
-40 90 -11 0 -22 -12 -29 -31z"/>
<path d="M3071 7204 c0 -11 3 -14 6 -6 3 7 2 16 -1 19 -3 4 -6 -2 -5 -13z"/>
<path d="M3044 7089 c-12 -49 -17 -92 -13 -95 4 -2 10 0 13 5 8 12 29 171 24
176 -2 3 -13 -36 -24 -86z"/>
<path d="M3070 6646 c0 -32 35 -56 75 -52 17 2 40 4 53 5 12 0 39 17 60 37
l37 35 -33 -6 c-44 -9 -144 -9 -171 0 -18 5 -21 2 -21 -19z"/>
<path d="M2706 6542 c147 -77 218 -150 261 -269 24 -68 51 -267 40 -297 -5
-12 -21 -16 -72 -16 -36 0 -65 -4 -65 -8 0 -4 18 -136 40 -293 22 -156 40
-285 40 -285 0 -1 37 11 83 26 l82 28 6 41 c3 23 16 52 29 66 l24 25 -58 111
c-42 79 -55 114 -48 121 8 8 16 7 27 -2 13 -11 18 -10 31 8 8 12 21 22 27 22
7 0 35 -45 62 -100 27 -55 52 -99 55 -97 3 2 27 13 54 26 47 22 49 22 92 6 57
-22 127 -100 170 -190 37 -75 42 -121 20 -163 -16 -30 -56 -69 -99 -95 -25
-16 -26 -19 -13 -40 7 -12 107 -204 221 -427 114 -223 211 -409 216 -415 6 -6
9 330 7 880 l-4 890 -23 75 c-50 162 -151 309 -260 379 -47 31 -52 32 -147 29
l-98 -3 75 -37 c128 -63 209 -162 253 -308 21 -68 47 -252 37 -263 -4 -4 -140
-6 -302 -5 l-294 3 -6 110 c-15 252 -97 400 -264 476 -58 26 -75 29 -167 29
l-103 -1 71 -37z"/>
<path d="M3165 5074 l-170 -104 -17 23 -18 22 -34 -40 c-19 -22 -109 -125
-200 -230 l-167 -190 5 -520 c5 -576 20 -1136 38 -1380 17 -252 18 -240 -17
-242 -53 -5 -239 -34 -270 -43 -16 -4 -52 -11 -80 -15 -94 -13 -250 -46 -355
-76 -260 -75 -393 -142 -420 -213 -15 -40 -6 -59 46 -105 44 -38 44 -40 24
-51 -12 -6 -49 -17 -83 -25 -244 -55 -483 -145 -562 -213 -66 -56 -82 -120
-46 -175 100 -152 627 -307 1306 -383 22 -3 78 -9 125 -14 47 -6 119 -12 160
-15 92 -5 156 -10 375 -26 273 -20 1350 -17 1645 5 129 10 269 20 310 22 41 2
107 8 145 14 39 5 95 12 125 15 114 11 382 52 556 86 318 61 556 140 674 225
28 20 64 56 81 80 16 24 37 44 46 44 43 0 660 46 743 56 25 2 65 7 90 9 51 5
140 16 415 50 175 22 241 33 500 85 132 26 321 77 390 106 33 14 79 33 103 42
23 9 64 35 89 57 43 38 46 45 45 86 -1 38 -7 49 -39 77 -39 35 -148 91 -218
112 -22 7 -49 16 -60 20 -11 5 -47 15 -80 24 -33 8 -94 24 -135 34 -41 11 -93
23 -115 26 -82 14 -79 9 -71 101 3 45 9 97 13 116 l6 34 -60 -55 c-34 -30 -92
-72 -130 -92 l-68 -37 1 51 c2 49 3 51 53 79 73 42 182 149 216 211 30 54 54
176 55 269 0 42 3 48 29 59 53 22 62 40 59 121 l-3 74 -42 23 c-99 55 -314 91
-548 92 -161 1 -171 0 -183 -20 -11 -18 -10 -20 8 -20 11 0 29 6 40 12 16 10
24 10 40 0 11 -6 46 -12 77 -12 86 0 278 -19 357 -36 84 -17 154 -47 162 -69
25 -65 -172 -112 -506 -121 -312 -9 -603 28 -653 83 -12 14 -14 30 -10 61 6
45 26 63 46 43 8 -8 16 -6 29 6 16 14 23 15 38 5 26 -16 50 -15 50 2 0 21 28
46 45 40 8 -4 15 -13 15 -21 0 -12 12 -14 68 -9 37 3 86 7 110 8 38 2 41 4 36
22 -9 31 -9 31 -87 28 -166 -6 -386 -58 -433 -103 -14 -13 -24 -34 -24 -50 0
-15 -4 -30 -9 -33 -5 -3 -7 -14 -4 -25 4 -15 -3 -20 -34 -26 -57 -10 -91 -35
-114 -83 -19 -39 -21 -57 -17 -180 3 -111 7 -143 22 -168 20 -34 63 -64 92
-64 9 0 14 -3 11 -7 -4 -3 -30 -6 -59 -7 -47 -1 -53 -4 -56 -24 l-3 -23 143 3
c135 3 143 4 143 23 0 17 -8 21 -65 25 -53 4 -59 6 -35 12 17 4 38 13 49 21
18 13 18 16 -12 94 -34 87 -54 212 -45 285 l5 46 33 -16 33 -17 4 -100 c4 -83
10 -113 37 -176 37 -89 106 -171 193 -230 49 -34 59 -45 54 -62 -3 -12 -6 -32
-6 -45 l0 -23 -42 23 c-23 13 -70 49 -105 82 -35 32 -63 52 -63 44 0 -26 21
-133 30 -153 4 -11 16 -71 26 -133 9 -63 23 -120 30 -127 20 -20 18 -24 -21
-41 -29 -12 -131 -14 -615 -14 l-580 0 0 379 0 380 -131 3 c-72 2 -133 1 -135
-1 -2 -2 -4 -145 -4 -317 0 -288 -1 -314 -17 -322 -25 -13 -270 -59 -378 -72
-49 -5 -105 -12 -122 -15 l-33 -6 30 -53 c17 -29 30 -55 30 -59 0 -8 -84 -57
-98 -57 -7 0 -31 37 -53 83 l-41 82 -175 2 c-194 2 -371 20 -568 59 -148 28
-353 82 -360 95 -5 7 27 408 81 1029 39 455 44 522 44 626 l0 112 -186 363
c-382 748 -388 759 -403 758 -9 0 -92 -48 -186 -105z m99 -1629 c4 -27 34
-216 66 -420 54 -340 58 -377 51 -458 -5 -48 -11 -90 -14 -94 -4 -3 -22 2 -41
11 -26 12 -41 14 -61 6 -14 -5 -57 -10 -95 -10 -58 0 -71 3 -80 19 -25 47 -10
170 70 595 44 233 80 428 81 432 1 20 17 -34 23 -81z m2602 -1592 c68 -71 124
-133 124 -139 0 -18 -330 -166 -356 -160 -15 4 -23 1 -26 -12 -5 -18 -9 -21
-143 -83 -245 -113 -307 -139 -330 -139 -14 0 -25 -6 -25 -13 0 -12 -362 -187
-387 -187 -7 0 -13 9 -13 19 0 11 -14 90 -30 177 -31 159 -30 173 6 174 6 0
19 -46 29 -102 10 -57 20 -97 22 -90 3 7 -2 53 -12 103 -16 91 -15 109 10 109
9 0 17 -24 26 -76 6 -41 15 -70 19 -64 4 6 1 43 -7 82 -13 59 -13 72 -1 79 22
14 26 11 33 -33 10 -61 28 -85 20 -28 -4 25 -9 53 -11 63 -7 22 25 35 37 16 5
-8 9 -26 9 -41 0 -16 5 -28 10 -28 9 0 7 28 -6 69 -5 14 13 41 27 41 4 0 11
-16 15 -35 3 -19 10 -33 14 -30 5 3 5 18 0 35 -6 21 -4 32 6 41 17 14 19 12
33 -21 10 -23 11 -23 8 10 -2 29 2 36 20 38 16 2 23 -3 26 -20 3 -18 5 -16 6
8 1 36 26 52 40 26 9 -15 10 -14 11 6 0 27 28 41 41 21 8 -13 13 -5 10 15 -1
5 5 6 14 3 9 -4 15 -1 15 8 0 18 16 20 23 3 3 -8 6 -6 6 4 1 12 6 15 18 11 12
-5 14 -3 8 7 -6 10 -4 12 8 7 11 -4 17 -1 17 9 0 11 6 13 20 9 14 -5 20 -2 20
10 0 11 6 15 19 10 12 -3 21 0 24 10 4 8 13 12 20 9 8 -3 17 2 21 11 4 12 13
15 31 11 20 -5 23 -3 18 10 -5 12 0 15 20 12 14 -1 26 1 26 6 -1 14 25 26 44
20 11 -4 17 -1 15 8 -2 9 7 12 31 11 21 -1 29 2 21 7 -9 6 -7 11 11 20 17 10
24 10 27 1 2 -6 8 -11 13 -11 4 0 6 7 3 15 -9 22 26 32 41 12 7 -10 18 -17 25
-17 9 0 7 7 -6 21 -15 17 -16 22 -4 29 10 6 23 2 40 -15 34 -32 51 -32 21 -1
-22 23 -22 46 1 46 5 0 66 -57 134 -127z m-2980 -573 c29 0 61 8 85 22 l38 21
50 -39 c49 -36 51 -40 51 -86 l0 -48 -220 0 -220 0 0 49 c0 47 2 51 47 84 l48
35 37 -19 c21 -11 58 -19 84 -19z m609 26 c34 -23 87 -27 145 -10 94 27 111
26 291 -10 97 -20 179 -36 183 -36 3 0 6 -22 6 -50 l0 -50 -330 0 -330 0 0 85
c0 47 3 85 8 85 4 0 16 -6 27 -14z"/>
<path d="M6766 4364 c-3 -9 -6 -30 -6 -47 0 -27 -7 -36 -39 -54 -26 -15 -44
-35 -52 -57 -7 -19 -21 -37 -31 -39 -16 -5 -19 -13 -16 -59 l3 -53 35 1 c144
6 253 6 299 -1 63 -9 71 -2 71 63 0 36 -4 44 -24 52 -13 5 -28 22 -34 39 -13
37 -61 68 -119 77 -39 6 -43 9 -43 35 0 22 5 29 19 29 11 0 26 3 35 6 29 11 5
24 -44 24 -34 0 -50 -4 -54 -16z m19 -114 c3 -5 1 -10 -4 -10 -6 0 -11 5 -11
10 0 6 2 10 4 10 3 0 8 -4 11 -10z"/>
<path d="M6768 3183 c7 -3 16 -2 19 1 4 3 -2 6 -13 5 -11 0 -14 -3 -6 -6z"/>
<path d="M1295 2555 c-94 -13 -145 -30 -145 -50 0 -12 73 -40 135 -51 77 -13
408 -16 480 -4 85 14 167 41 167 55 2 52 -397 84 -637 50z"/>
<path d="M6680 2545 l0 -26 143 3 c134 3 142 4 142 23 0 19 -8 20 -142 23
l-143 3 0 -26z"/>
<path d="M6682 2478 c3 -22 7 -23 133 -26 133 -2 163 4 152 32 -5 14 -27 16
-147 16 -141 0 -141 0 -138 -22z"/>
<path d="M7590 1323 c-14 -2 -65 -8 -115 -13 -177 -21 -310 -63 -303 -97 6
-32 55 -53 183 -79 122 -25 147 -27 420 -28 312 -1 370 3 514 34 130 29 163
44 159 72 -5 35 -66 58 -223 86 -118 20 -178 24 -375 26 -129 1 -246 1 -260
-1z"/>
</g>
</svg>
