<svg id="Layer_3" enable-background="new 0 0 64 64" height="512" viewBox="0 0 64 64" width="512" xmlns="http://www.w3.org/2000/svg"><g><path d="m59 56v-36h-54v36" fill="#d5cec2"/><path d="m5 32h30v16h-30z" fill="#c7e2fc"/><path d="m5 32v16h20.052c4.751-3.883 7.978-9.561 8.642-16z" fill="#ebf7fe"/><path d="m39 56v-28h16v28" fill="#fadfb2"/><g fill="#c16b3f"><path d="m39 28h16v4h-16z"/><path d="m5 48h30v8h-30z"/><path d="m5 28h30v4h-30z"/></g><path d="m2 16v-6c0-1.105.895-2 2-2h56c1.105 0 2 .895 2 2v6z" fill="#e39854"/><path d="m7 8v-2c0-1.105.895-2 2-2h12v4z" fill="#c16b3f"/><path d="m57 8v-2c0-1.105-.895-2-2-2h-12v4z" fill="#c16b3f"/><path d="m62 62h-60v-4c0-1.105.895-2 2-2h56c1.105 0 2 .895 2 2z" fill="#e39854"/><path d="m5 24c-1.657 0-3-1.343-3-3v-5h6v5c0 1.657-1.343 3-3 3z" fill="#c16b3f"/><path d="m11 24c-1.657 0-3-1.343-3-3v-5h6v5c0 1.657-1.343 3-3 3z" fill="#e7e4dd"/><path d="m17 24c-1.657 0-3-1.343-3-3v-5h6v5c0 1.657-1.343 3-3 3z" fill="#c16b3f"/><path d="m23 24c-1.657 0-3-1.343-3-3v-5h6v5c0 1.657-1.343 3-3 3z" fill="#e7e4dd"/><path d="m29 24c-1.657 0-3-1.343-3-3v-5h6v5c0 1.657-1.343 3-3 3z" fill="#c16b3f"/><path d="m35 24c-1.657 0-3-1.343-3-3v-5h6v5c0 1.657-1.343 3-3 3z" fill="#e7e4dd"/><path d="m41 24c-1.657 0-3-1.343-3-3v-5h6v5c0 1.657-1.343 3-3 3z" fill="#c16b3f"/><path d="m47 24c-1.657 0-3-1.343-3-3v-5h6v5c0 1.657-1.343 3-3 3z" fill="#e7e4dd"/><path d="m53 24c-1.657 0-3-1.343-3-3v-5h6v5c0 1.657-1.343 3-3 3z" fill="#c16b3f"/><path d="m59 24c-1.657 0-3-1.343-3-3v-5h6v5c0 1.657-1.343 3-3 3z" fill="#e7e4dd"/><path d="m42 12h-20c-.552 0-1-.448-1-1v-8c0-.552.448-1 1-1h20c.552 0 1 .448 1 1v8c0 .552-.448 1-1 1z" fill="#e7e4dd"/><g><path d="m8.55 39.498h9.899v2.001h-9.899z" fill="#c7e2fc" transform="matrix(.707 -.707 .707 .707 -24.68 21.401)"/></g><g><path d="m17.55 39.498h9.899v2.001h-9.899z" fill="#c7e2fc" transform="matrix(.707 -.707 .707 .707 -22.045 27.764)"/></g><path d="m37 9h-10c-1.105 0-2-.895-2-2 0-1.105.895-2 2-2h10c1.105 0 2 .895 2 2 0 1.105-.895 2-2 2z" fill="#c16b3f"/><g><path d="m43 43.998c-1.103 0-2-.896-2-1.999 0-1.104.897-2 2-2s2 .896 2 2c-.001 1.103-.898 1.999-2 1.999z" fill="#e39854"/></g><path d="m27 5c-1.105 0-2 .895-2 2s.895 2 2 2h6.262c1.152-1.065 2.006-2.442 2.431-4z" fill="#e39854"/></g></svg>