<svg height="512" viewBox="0 0 512 512" width="512" xmlns="http://www.w3.org/2000/svg"><path d="m368 416v-68a12 12 0 0 0 -24 0v148h66.667v-16a16 16 0 0 0 16-16v-48z" fill="#f0915a"/><path d="m208 16a112 112 0 0 0 -112 112v192h112v-32h64a48 48 0 0 0 48-48v-112a112 112 0 0 0 -112-112z" fill="#fab991"/><path d="m96 320h176a48 48 0 0 1 48 48v128a0 0 0 0 1 0 0h-272a0 0 0 0 1 0 0v-128a48 48 0 0 1 48-48z" fill="#353744"/><path d="m208 320v-32h-80a32 32 0 0 0 -32 32h64a48 48 0 0 1 48 48v24a24 24 0 0 0 48 0v-24a48 48 0 0 0 -48-48z" fill="#f0915a"/><path d="m96 320a48 48 0 0 1 48 48v128a0 0 0 0 1 0 0h-96a0 0 0 0 1 0 0v-128a48 48 0 0 1 48-48z" fill="#55525b"/><path d="m208 288h64a0 0 0 0 1 0 0 32 32 0 0 1 -32 32h-32a0 0 0 0 1 0 0v-32a0 0 0 0 1 0 0z" fill="#d7322d"/><path d="m240 16h-48a112 112 0 0 0 -112 112v128a32 32 0 0 0 0 64h64a32 32 0 0 0 32-32v-128a32 32 0 0 0 32-32h112a16 16 0 0 0 16-16 96 96 0 0 0 -96-96z" fill="#f04b37"/><g fill="#fab991"><rect height="42.667" rx="12" width="24" x="368" y="394.667"/><rect height="42.667" rx="12" width="24" x="392" y="394.667"/><rect height="34.667" rx="12" width="24" x="416" y="402.667"/><path d="m344 400a16 16 0 0 1 16 16v40h8a24 24 0 0 1 24 24h-48a8 8 0 0 1 -8-8v-64a8 8 0 0 1 8-8z"/></g><path d="m464 240a48 48 0 1 0 -81.321 34.534 29.88 29.88 0 0 1 9.321 21.466h48v-.006a29.3 29.3 0 0 1 9.083-21.232 47.831 47.831 0 0 0 14.917-34.762z" fill="#fabe19"/><path d="m392 296h48a0 0 0 0 1 0 0 24 24 0 0 1 -24 24 24 24 0 0 1 -24-24 0 0 0 0 1 0 0z" fill="#55525b"/><circle cx="400" cy="224" fill="#ffdc37" r="16"/><circle cx="242.667" cy="160" fill="#353744" r="10.667"/><circle cx="290.667" cy="160" fill="#353744" r="10.667"/><path d="m256 240h32a0 0 0 0 1 0 0 16 16 0 0 1 -16 16 16 16 0 0 1 -16-16 0 0 0 0 1 0 0z" fill="#353744"/><path d="m293.333 190.667a30.667 30.667 0 1 1 30.667-30.667 30.7 30.7 0 0 1 -30.667 30.667zm0-53.334a22.667 22.667 0 1 0 22.667 22.667 22.692 22.692 0 0 0 -22.667-22.667z" fill="#6478b9"/><path d="m266.667 173.333a32 32 0 0 1 32 32v2.667a16 16 0 0 1 -16 16 16 16 0 0 1 -16-16v-34.667a0 0 0 0 1 0 0z" fill="#f0915a"/><path d="m240 190.667a30.667 30.667 0 1 1 30.667-30.667 30.7 30.7 0 0 1 -30.667 30.667zm0-53.334a22.667 22.667 0 1 0 22.667 22.667 22.692 22.692 0 0 0 -22.667-22.667z" fill="#6478b9"/><path d="m176 152a24 24 0 0 0 -24 24h8a16 16 0 0 1 16-16h37.333v-8z" fill="#6478b9"/><path d="m176 160v80a40 40 0 0 1 0-80z" fill="#f0915a"/></svg>